<mxfile host="app.diagrams.net" modified="2024-03-09T20:08:58.874Z" agent="Mozilla/5.0 (Windows NT 10.0; Win64; x64) AppleWebKit/537.36 (KHTML, like Gecko) Chrome/122.0.0.0 Safari/537.36" etag="3qNubn5oO1TfYibbhYqB" version="24.0.4" type="github">
  <diagram name="PÃ¡gina-1" id="hNAxjIGaJdhHwA7gnnjn">
    <mxGraphModel dx="880" dy="472" grid="1" gridSize="10" guides="1" tooltips="1" connect="1" arrows="1" fold="1" page="1" pageScale="1" pageWidth="827" pageHeight="1169" math="0" shadow="0">
      <root>
        <mxCell id="0" />
        <mxCell id="1" parent="0" />
        <mxCell id="9Bf6Wea90JQik3r4SX6L-1" value="Creates" style="rounded=1;whiteSpace=wrap;html=1;fillColor=#ffe6cc;strokeColor=#d79b00;" vertex="1" parent="1">
          <mxGeometry x="80" y="50" width="120" height="60" as="geometry" />
        </mxCell>
        <mxCell id="9Bf6Wea90JQik3r4SX6L-2" value="You Decide" style="rounded=1;whiteSpace=wrap;html=1;fillColor=#fff2cc;strokeColor=#d6b656;" vertex="1" parent="1">
          <mxGeometry x="80" y="550" width="120" height="60" as="geometry" />
        </mxCell>
        <mxCell id="9Bf6Wea90JQik3r4SX6L-3" value="Sends Data To" style="rounded=1;whiteSpace=wrap;html=1;fillColor=#d5e8d4;strokeColor=#82b366;" vertex="1" parent="1">
          <mxGeometry x="85" y="450" width="120" height="60" as="geometry" />
        </mxCell>
        <mxCell id="9Bf6Wea90JQik3r4SX6L-4" value="Links To" style="rounded=1;whiteSpace=wrap;html=1;fillColor=#dae8fc;strokeColor=#6c8ebf;" vertex="1" parent="1">
          <mxGeometry x="85" y="340" width="120" height="60" as="geometry" />
        </mxCell>
        <mxCell id="9Bf6Wea90JQik3r4SX6L-5" value="Calls" style="rounded=1;whiteSpace=wrap;html=1;fillColor=#f8cecc;strokeColor=#b85450;" vertex="1" parent="1">
          <mxGeometry x="80" y="240" width="120" height="60" as="geometry" />
        </mxCell>
        <mxCell id="9Bf6Wea90JQik3r4SX6L-6" value="Manages" style="rounded=1;whiteSpace=wrap;html=1;fillColor=#e1d5e7;strokeColor=#9673a6;" vertex="1" parent="1">
          <mxGeometry x="80" y="140" width="120" height="60" as="geometry" />
        </mxCell>
        <mxCell id="9Bf6Wea90JQik3r4SX6L-7" value="" style="rounded=0;whiteSpace=wrap;html=1;" vertex="1" parent="1">
          <mxGeometry x="300" y="20" width="500" height="600" as="geometry" />
        </mxCell>
        <mxCell id="9Bf6Wea90JQik3r4SX6L-8" value="CONSOLIDATE LIST" style="rounded=1;whiteSpace=wrap;html=1;" vertex="1" parent="1">
          <mxGeometry x="315" y="80" width="470" height="60" as="geometry" />
        </mxCell>
        <mxCell id="9Bf6Wea90JQik3r4SX6L-19" value="TRANSACTION" style="rounded=1;whiteSpace=wrap;html=1;" vertex="1" parent="1">
          <mxGeometry x="380" y="150" width="350" height="60" as="geometry" />
        </mxCell>
        <mxCell id="9Bf6Wea90JQik3r4SX6L-34" value="&lt;div&gt;LEAVE&lt;/div&gt;" style="rounded=1;whiteSpace=wrap;html=1;" vertex="1" parent="1">
          <mxGeometry x="680" y="540" width="120" height="60" as="geometry" />
        </mxCell>
        <mxCell id="9Bf6Wea90JQik3r4SX6L-38" value="ID" style="rounded=1;whiteSpace=wrap;html=1;" vertex="1" parent="1">
          <mxGeometry x="330" y="150" width="50" height="60" as="geometry" />
        </mxCell>
        <mxCell id="9Bf6Wea90JQik3r4SX6L-39" value="CHECK" style="rounded=1;whiteSpace=wrap;html=1;" vertex="1" parent="1">
          <mxGeometry x="730" y="150" width="60" height="30" as="geometry" />
        </mxCell>
        <mxCell id="9Bf6Wea90JQik3r4SX6L-40" value="FIX" style="rounded=1;whiteSpace=wrap;html=1;" vertex="1" parent="1">
          <mxGeometry x="730" y="180" width="60" height="30" as="geometry" />
        </mxCell>
        <mxCell id="9Bf6Wea90JQik3r4SX6L-41" value="TRANSACTION" style="rounded=1;whiteSpace=wrap;html=1;" vertex="1" parent="1">
          <mxGeometry x="380" y="210" width="350" height="60" as="geometry" />
        </mxCell>
        <mxCell id="9Bf6Wea90JQik3r4SX6L-42" value="ID" style="rounded=1;whiteSpace=wrap;html=1;" vertex="1" parent="1">
          <mxGeometry x="330" y="210" width="50" height="60" as="geometry" />
        </mxCell>
        <mxCell id="9Bf6Wea90JQik3r4SX6L-43" value="CHECK" style="rounded=1;whiteSpace=wrap;html=1;" vertex="1" parent="1">
          <mxGeometry x="730" y="210" width="60" height="30" as="geometry" />
        </mxCell>
        <mxCell id="9Bf6Wea90JQik3r4SX6L-44" value="FIX" style="rounded=1;whiteSpace=wrap;html=1;" vertex="1" parent="1">
          <mxGeometry x="730" y="240" width="60" height="30" as="geometry" />
        </mxCell>
        <mxCell id="9Bf6Wea90JQik3r4SX6L-45" value="TRANSACTION" style="rounded=1;whiteSpace=wrap;html=1;" vertex="1" parent="1">
          <mxGeometry x="380" y="270" width="350" height="60" as="geometry" />
        </mxCell>
        <mxCell id="9Bf6Wea90JQik3r4SX6L-46" value="ID" style="rounded=1;whiteSpace=wrap;html=1;" vertex="1" parent="1">
          <mxGeometry x="330" y="270" width="50" height="60" as="geometry" />
        </mxCell>
        <mxCell id="9Bf6Wea90JQik3r4SX6L-47" value="CHECK" style="rounded=1;whiteSpace=wrap;html=1;" vertex="1" parent="1">
          <mxGeometry x="730" y="270" width="60" height="30" as="geometry" />
        </mxCell>
        <mxCell id="9Bf6Wea90JQik3r4SX6L-48" value="FIX" style="rounded=1;whiteSpace=wrap;html=1;" vertex="1" parent="1">
          <mxGeometry x="730" y="300" width="60" height="30" as="geometry" />
        </mxCell>
        <mxCell id="9Bf6Wea90JQik3r4SX6L-49" value="TRANSACTION" style="rounded=1;whiteSpace=wrap;html=1;" vertex="1" parent="1">
          <mxGeometry x="380" y="330" width="350" height="60" as="geometry" />
        </mxCell>
        <mxCell id="9Bf6Wea90JQik3r4SX6L-50" value="ID" style="rounded=1;whiteSpace=wrap;html=1;" vertex="1" parent="1">
          <mxGeometry x="330" y="330" width="50" height="60" as="geometry" />
        </mxCell>
        <mxCell id="9Bf6Wea90JQik3r4SX6L-51" value="CHECK" style="rounded=1;whiteSpace=wrap;html=1;" vertex="1" parent="1">
          <mxGeometry x="730" y="330" width="60" height="30" as="geometry" />
        </mxCell>
        <mxCell id="9Bf6Wea90JQik3r4SX6L-52" value="FIX" style="rounded=1;whiteSpace=wrap;html=1;" vertex="1" parent="1">
          <mxGeometry x="730" y="360" width="60" height="30" as="geometry" />
        </mxCell>
        <mxCell id="9Bf6Wea90JQik3r4SX6L-53" value="TRANSACTION" style="rounded=1;whiteSpace=wrap;html=1;" vertex="1" parent="1">
          <mxGeometry x="380" y="390" width="350" height="60" as="geometry" />
        </mxCell>
        <mxCell id="9Bf6Wea90JQik3r4SX6L-54" value="ID" style="rounded=1;whiteSpace=wrap;html=1;" vertex="1" parent="1">
          <mxGeometry x="330" y="390" width="50" height="60" as="geometry" />
        </mxCell>
        <mxCell id="9Bf6Wea90JQik3r4SX6L-55" value="CHECK" style="rounded=1;whiteSpace=wrap;html=1;" vertex="1" parent="1">
          <mxGeometry x="730" y="390" width="60" height="30" as="geometry" />
        </mxCell>
        <mxCell id="9Bf6Wea90JQik3r4SX6L-56" value="FIX" style="rounded=1;whiteSpace=wrap;html=1;" vertex="1" parent="1">
          <mxGeometry x="730" y="420" width="60" height="30" as="geometry" />
        </mxCell>
        <mxCell id="9Bf6Wea90JQik3r4SX6L-57" value="TRANSACTION" style="rounded=1;whiteSpace=wrap;html=1;" vertex="1" parent="1">
          <mxGeometry x="380" y="450" width="350" height="60" as="geometry" />
        </mxCell>
        <mxCell id="9Bf6Wea90JQik3r4SX6L-58" value="ID" style="rounded=1;whiteSpace=wrap;html=1;" vertex="1" parent="1">
          <mxGeometry x="330" y="450" width="50" height="60" as="geometry" />
        </mxCell>
        <mxCell id="9Bf6Wea90JQik3r4SX6L-59" value="CHECK" style="rounded=1;whiteSpace=wrap;html=1;" vertex="1" parent="1">
          <mxGeometry x="730" y="450" width="60" height="30" as="geometry" />
        </mxCell>
        <mxCell id="9Bf6Wea90JQik3r4SX6L-60" value="FIX" style="rounded=1;whiteSpace=wrap;html=1;" vertex="1" parent="1">
          <mxGeometry x="730" y="480" width="60" height="30" as="geometry" />
        </mxCell>
        <mxCell id="9Bf6Wea90JQik3r4SX6L-61" value="CONSOLIDATE" style="rounded=1;whiteSpace=wrap;html=1;" vertex="1" parent="1">
          <mxGeometry x="560" y="540" width="120" height="60" as="geometry" />
        </mxCell>
      </root>
    </mxGraphModel>
  </diagram>
</mxfile>
